<svg width="170" height="189" xmlns="http://www.w3.org/2000/svg" xmlns:xlink="http://www.w3.org/1999/xlink" overflow="hidden"><defs><clipPath id="clip0"><rect x="200" y="395" width="170" height="189"/></clipPath></defs><g clip-path="url(#clip0)" transform="translate(-200 -395)"><path d="M253 450.123C253 443.98 257.98 439 264.123 439L306.877 439C313.02 439 318 443.98 318 450.123L318 567.877C318 574.02 313.02 579 306.877 579L264.123 579C257.98 579 253 574.02 253 567.877Z" stroke="#373737" stroke-width="8" stroke-miterlimit="8" fill="none" fill-rule="evenodd"/><path d="M265.5 460C265.5 455.858 268.634 452.5 272.5 452.5 276.366 452.5 279.5 455.858 279.5 460 279.5 464.142 276.366 467.5 272.5 467.5 268.634 467.5 265.5 464.142 265.5 460Z" stroke="#373737" stroke-width="1.33333" stroke-miterlimit="8" fill="#373737" fill-rule="evenodd"/><path d="M292.5 460C292.5 455.858 295.634 452.5 299.5 452.5 303.366 452.5 306.5 455.858 306.5 460 306.5 464.142 303.366 467.5 299.5 467.5 295.634 467.5 292.5 464.142 292.5 460Z" stroke="#373737" stroke-width="1.33333" stroke-miterlimit="8" fill="#373737" fill-rule="evenodd"/><path d="M285.5 526C285.5 521.858 288.858 518.5 293 518.5 297.142 518.5 300.5 521.858 300.5 526 300.5 530.142 297.142 533.5 293 533.5 288.858 533.5 285.5 530.142 285.5 526Z" stroke="#373737" stroke-width="1.33333" stroke-miterlimit="8" fill="#373737" fill-rule="evenodd"/><path d="M271.5 526C271.5 521.858 274.634 518.5 278.5 518.5 282.366 518.5 285.5 521.858 285.5 526 285.5 530.142 282.366 533.5 278.5 533.5 274.634 533.5 271.5 530.142 271.5 526Z" stroke="#373737" stroke-width="1.33333" stroke-miterlimit="8" fill="#373737" fill-rule="evenodd"/><path d="M300.5 543.5C300.5 551.784 294.008 558.5 286 558.5 277.992 558.5 271.5 551.784 271.5 543.5 279.98 550.507 292.02 550.507 300.5 543.5Z" stroke="#373737" stroke-width="1.33333" stroke-miterlimit="8" fill="#373737" fill-rule="evenodd"/><path d="M281 531 285.5 470 290 531Z" stroke="#373737" stroke-width="6" stroke-linecap="round" stroke-linejoin="round" stroke-miterlimit="10" fill="#373737" fill-rule="evenodd"/><path d="M250.771 535C233.37 526.715 215.969 518.43 209.302 500.397 202.634 482.365 204.179 444.188 210.765 426.805 217.352 409.422 285.288 400.325 251.747 400" stroke="#373737" stroke-width="8" stroke-miterlimit="8" fill="none" fill-rule="evenodd"/><path d="M45.7711 135C28.3701 126.715 10.9693 118.43 4.30177 100.397-2.36578 82.3647-0.820897 44.1878 5.76541 26.8051 12.3517 9.42248 80.2881 0.324971 46.7468 0" stroke="#373737" stroke-width="8" stroke-miterlimit="8" fill="none" fill-rule="evenodd" transform="matrix(-1 0 0 1 366 400)"/></g></svg>