<svg width="180" height="199" xmlns="http://www.w3.org/2000/svg" xmlns:xlink="http://www.w3.org/1999/xlink" overflow="hidden"><defs><clipPath id="clip0"><rect x="550" y="469" width="180" height="199"/></clipPath></defs><g clip-path="url(#clip0)" transform="translate(-550 -469)"><path d="M600 523.69C600 516.129 606.129 510 613.69 510L666.31 510C673.871 510 680 516.129 680 523.69L680 644.31C680 651.871 673.871 658 666.31 658L613.69 658C606.129 658 600 651.871 600 644.31Z" stroke="#373737" stroke-width="18" stroke-miterlimit="8" fill="none" fill-rule="evenodd"/><path d="M616.5 541C616.5 535.753 620.753 531.5 626 531.5 631.247 531.5 635.5 535.753 635.5 541 635.5 546.247 631.247 550.5 626 550.5 620.753 550.5 616.5 546.247 616.5 541Z" stroke="#373737" stroke-width="1.33333" stroke-miterlimit="8" fill="#373737" fill-rule="evenodd"/><path d="M646.5 541C646.5 535.753 650.977 531.5 656.5 531.5 662.023 531.5 666.5 535.753 666.5 541 666.5 546.247 662.023 550.5 656.5 550.5 650.977 550.5 646.5 546.247 646.5 541Z" stroke="#373737" stroke-width="1.33333" stroke-miterlimit="8" fill="#373737" fill-rule="evenodd"/><path d="M640.5 605C640.5 600.858 643.634 597.5 647.5 597.5 651.366 597.5 654.5 600.858 654.5 605 654.5 609.142 651.366 612.5 647.5 612.5 643.634 612.5 640.5 609.142 640.5 605Z" stroke="#373737" stroke-width="1.33333" stroke-miterlimit="8" fill="#373737" fill-rule="evenodd"/><path d="M626.5 605C626.5 600.858 629.634 597.5 633.5 597.5 637.366 597.5 640.5 600.858 640.5 605 640.5 609.142 637.366 612.5 633.5 612.5 629.634 612.5 626.5 609.142 626.5 605Z" stroke="#373737" stroke-width="1.33333" stroke-miterlimit="8" fill="#373737" fill-rule="evenodd"/><path d="M655.5 622.5C655.5 632.993 649.008 641.5 641 641.5 632.992 641.5 626.5 632.993 626.5 622.5 635.878 626.875 646.122 626.875 655.5 622.5Z" stroke="#373737" stroke-width="1.33333" stroke-miterlimit="8" fill="#373737" fill-rule="evenodd"/><path d="M635 610 640.5 549 646 610Z" stroke="#373737" stroke-width="6" stroke-linecap="round" stroke-linejoin="round" stroke-miterlimit="10" fill="#373737" fill-rule="evenodd"/><path d="M605.771 614C588.37 605.715 570.969 597.43 564.302 579.397 557.634 561.365 559.179 523.188 565.765 505.805 572.352 488.422 640.288 479.325 606.747 479" stroke="#373737" stroke-width="18" stroke-miterlimit="8" fill="none" fill-rule="evenodd"/><path d="M45.7711 135C28.3701 126.715 10.9693 118.43 4.30177 100.397-2.36578 82.3647-0.820897 44.1878 5.76541 26.8051 12.3517 9.42248 80.2881 0.324971 46.7468 0" stroke="#373737" stroke-width="18" stroke-miterlimit="8" fill="none" fill-rule="evenodd" transform="matrix(-1 0 0 1 720 479)"/></g></svg>